# xmcd
#
# Track frame offsets: 
#        150
#        15088
#        38101
#        43783
#        48779
#        71576
#        88267
#        111472
#        139901
#        168267
#
# Disc length: 2388 seconds
#
# Revision: 2
# Processed by: cddbd v1.5.2PL0 Copyright (c) Steve Scherf et al.
# Submitted via: ExactAudioCopyFreeDBPlugin 1.0
#
DISCID=8009520a
DTITLE=George Duke - Faces In Reflection
DYEAR=1974
DGENRE=Jazz+Funk
TTITLE0=The Opening
TTITLE1=Capricorn
TTITLE2=Piano Solo No. 1
TTITLE3=Piano Solo No. 2
TTITLE4=Psychosomatic Dung
TTITLE5=Faces In Reflection No. 1 (Instrumental)
TTITLE6=Maria Tres Filhos
TTITLE7=North Beach
TTITLE8=Da Somba
TTITLE9=Faces In Reflection No. 2 (Vocal)
EXTD=YEAR: 1974
EXTT0=
EXTT1=
EXTT2=
EXTT3=
EXTT4=
EXTT5=
EXTT6=
EXTT7=
EXTT8=
EXTT9=
PLAYORDER=
